<svg id="Layer_1" data-name="Layer 1" xmlns="http://www.w3.org/2000/svg" viewBox="0 0 414 305"><defs><style>.cls-1{fill:#fff;}.cls-2{fill:#22c55e;}</style></defs><title>favicon_bg</title><rect class="cls-1" x="16" y="16" width="379" height="274"/><path class="cls-2" d="M348,99.37c-.75-2.27-1.51-4.54-2.08-6.81-.57-2.84-.94-5.49-1.51-8.33-.19-.37-.19-.75-.38-1.13-.38-.76-1-.76-1.51,0a17,17,0,0,0-.57,1.7c-.76,4.16-2.46,8.33-3,12.68a8.33,8.33,0,0,1-.57,2.08c-.38,1.14-.94,2.46-1.32,3.79-.57,1.89-.19,2.84,1.7,3,2.08.38,4,.57,5.87.76h.57c2.83,0,4.35-1.7,3.78-4.54A21.1,21.1,0,0,0,348,99.37Z"/><path class="cls-2" d="M157.85,78.75c-.38-5.87-1.14-11.93-3.41-17.6a33.15,33.15,0,0,0-4.92-8.71,4.66,4.66,0,0,0-3-1.89,36,36,0,0,0-4.36-.95c-2.65-.19-5.11,0-7,1.9a41.72,41.72,0,0,0-8,10.21c-4.16,7.57-5.67,15.71-6,24a97.12,97.12,0,0,0,1.51,23.46,31.35,31.35,0,0,0,2.65,9.09,17.47,17.47,0,0,0,5.68,6.62,35.12,35.12,0,0,0,7.19,3.22c3,1.13,5.87.38,8.52-1.14a14.83,14.83,0,0,0,5.86-6.81,49.83,49.83,0,0,0,4.35-14,116.91,116.91,0,0,0,1.33-19.87C158,83.86,158,81.39,157.85,78.75Z"/><path class="cls-2" d="M132.45,208.52a22.13,22.13,0,0,0-1.36-4.51,17.87,17.87,0,0,0-2.4-4.06,8.54,8.54,0,0,0-6.77-3.16h-2.86a6.56,6.56,0,0,0-4.06,1.65,5.74,5.74,0,0,0-2,4.36v12.79h.16c-.16,3.46-.16,6.92-.31,10.53v2.7a3.64,3.64,0,0,0,3.34,3.92h3.57a2.73,2.73,0,0,0,1.06-.15,35.66,35.66,0,0,0,5.11-1.81,10.8,10.8,0,0,0,3.61-2.71,13.46,13.46,0,0,0,2.86-5.86c.6-3.31.3-6.77.3-10.08A29.06,29.06,0,0,0,132.45,208.52Z"/><path class="cls-2" d="M378.4,0H35.6A35.69,35.69,0,0,0,0,35.6V269.4A35.69,35.69,0,0,0,35.6,305H378.4A35.7,35.7,0,0,0,414,269.4V35.6A35.7,35.7,0,0,0,378.4,0ZM79.66,188.67c-.16.45,0,.9-.16,1.5a13,13,0,0,1-.9,2.56c-.45,1.35-1.65,1.8-3,2a22.72,22.72,0,0,1-3.3,0c-4.52-.15-9,.15-13.54.45-1.81.15-3.46,0-5.27.15a26,26,0,0,0-3.3.15,2.12,2.12,0,0,0-2,1.51,8,8,0,0,0-.9,3.76c.15,3.76.15,7.52.15,11.28a5.07,5.07,0,0,0,1.2,2.71,2.11,2.11,0,0,0,1.51.75c2.25-.15,4.36-.15,6.46-.3.45,0,.91-.15,1.36-.15,4.06.15,8.12.15,12.18.3A3.1,3.1,0,0,1,73.61,218a3.3,3.3,0,0,1,0,.77c.15,3.16.15,6.46.15,9.77a3.53,3.53,0,0,1-.15,1.21,3.6,3.6,0,0,1-3.46,3.46,32.83,32.83,0,0,1-7.67.3c-3.91-.15-8,0-11.88,0a3.46,3.46,0,0,0-3,1.65,5.72,5.72,0,0,0-1.2,3.46c-.16,3.31-.16,6.62-.16,9.93,0,6.77.16,13.53.16,20.3a42,42,0,0,1-.46,7.52c-.15.6-.3,1.21-.45,1.66a3.2,3.2,0,0,1-3,2.4c-2.25,0-4.36,0-6.61-.15s-4.21-.15-6.32-.15a3.32,3.32,0,0,1-3-1.8,7.63,7.63,0,0,1-1.5-4.81v-6c0-2.41-.15-4.81-.15-7.22V217.16c0-2.55.15-5.11.15-7.67,0-8.42-.15-17-.15-25.42a19.92,19.92,0,0,1,.45-4.36,7.55,7.55,0,0,1,3.31-4.66C30,174.3,31.52,174.3,33,174c5.71-.46,11.28-.61,17-.61H73a6.75,6.75,0,0,1,3,.61,6.17,6.17,0,0,1,3.76,5.71C79.81,182.65,79.66,185.66,79.66,188.67Zm5.15-37.26a8.29,8.29,0,0,1-2.27,3.41,3,3,0,0,1-2.27.76c-6.63.75-13.44.56-20.25.56-3.6-.19-7.38-.56-11-.56-2.08,0-4,0-6,.19-3.22,0-6.25.18-9.47.37a13.24,13.24,0,0,1-4.73-.94,5.22,5.22,0,0,1-3.21-3.41,16.44,16.44,0,0,1-1.14-6V64.36L23.9,49.6c0-2.46.19-5.11.38-7.76.38-4,1-7.75,1.33-11.73a22.24,22.24,0,0,1,.94-3.4,4.63,4.63,0,0,1,3.41-3,29.58,29.58,0,0,1,12.87-.38,7.56,7.56,0,0,1,4.35,2.27,3.32,3.32,0,0,1,1.13,2.27c0,1.89.19,3.6.19,5.49.19,6,.57,12.11.57,18,.19,5.86.19,11.54.19,17.22,0,5.11.19,10.22.38,15.33,0,2.64,0,5.48.19,8.13,0,10,.19,20.06.19,29.9A21.52,21.52,0,0,0,51,128a1.61,1.61,0,0,0,1.52,1.32c.94.19,1.89.19,3,.38,5.86.38,11.73.57,17.41,1.14,1.7,0,3.4.37,5.1.37,3.41.19,5.68,2.28,7,5.3a5.8,5.8,0,0,1,.94,3,25.54,25.54,0,0,1-1.12,11.9Zm68.54,129.31c-1.2,1.2-2.55,1-3.91,1-.75,0-1.65.15-2.4.15-1.4.07-2.81.07-4.21,0a18.81,18.81,0,0,1-6.32-1.81,8.78,8.78,0,0,1-3.46-3.61,36.07,36.07,0,0,0-1.81-4.36c-.9-1.65-2-3.16-3-4.81a52.58,52.58,0,0,1-3.76-7.07,11.72,11.72,0,0,1-.76-1.5,22.09,22.09,0,0,1-1.35-3.31c-.6-2-2-3.16-4.06-2.86a19.5,19.5,0,0,1-2.86,0,1.77,1.77,0,0,0-1.8,1.35,14.07,14.07,0,0,0-.76,4.36c0,2.71.15,5.42.15,8.13v8.42a8.92,8.92,0,0,1-2.85,6.47,7.49,7.49,0,0,1-5,2.1,22.66,22.66,0,0,1-4.51,0,9.35,9.35,0,0,1-6.92-3.16,6.7,6.7,0,0,1-1.8-4.36c-.15-3.76-.15-7.52-.3-11.28-.15-6-.3-12.18-.45-18.2-.31-7.67-.46-15.19-.76-22.86-.15-5.71-.45-11.43-.6-17.15,0-3.91,0-7.82.15-11.73.3-3.46.75-6.77,1.06-10.08v-.45a15.31,15.31,0,0,1,3.6-6,4.57,4.57,0,0,1,3.77-1.36c2.1.15,4.06-.15,6-.15a21.45,21.45,0,0,1,3,0c4.06,0,8,.15,11.88.15,4.21,0,8.42-.15,12.49-.15a16.72,16.72,0,0,1,4.81.76c5.56,1.8,9.32,5.71,12.33,10.52a25,25,0,0,1,1.66,3.46,54.18,54.18,0,0,1,3.91,20.16v8a45.17,45.17,0,0,1-2.71,12.63,25.93,25.93,0,0,1-3.76,7.37,10.34,10.34,0,0,1-1.2,1.36,5.6,5.6,0,0,0-1.21,7.37c.76,1.5,1.36,3,2.11,4.36.9,2.1,1.8,4.06,2.71,6.17a1.16,1.16,0,0,0,.3.75,50.24,50.24,0,0,0,3.31,7.82,13.67,13.67,0,0,1,1.05,3.76,45.67,45.67,0,0,1,.6,4.66c.35,2.12-1,3.62-2.36,5Zm3.55-127a34,34,0,0,1-9.65,3.22l-4.54.57h-1.32l-8.52-1.14a47.65,47.65,0,0,1-7-2.08,25.93,25.93,0,0,1-6.06-3,42.83,42.83,0,0,1-4.92-3.78,4.07,4.07,0,0,0-.94-.76c-3.6-2.46-6.06-5.86-8.52-9.46-4.73-7-6.81-14.76-8-23.09a79.46,79.46,0,0,1-.37-16.46c.18-2.84,0-5.87.18-8.71a85.3,85.3,0,0,1,1.33-14c.38-2.27.57-4.73.76-7,.75-4.92,1.32-9.84,2.83-14.76,2.46-6.81,5.3-13.63,10.79-18.74,3.6-3.59,7.38-7.19,12.11-9.65a39.08,39.08,0,0,1,11.36-4.16c3.78-.38,7.57-.95,11.35-.57a33.81,33.81,0,0,1,8.52,1.52,65.59,65.59,0,0,1,11,5.48,20.55,20.55,0,0,1,6.44,6.25,43.42,43.42,0,0,1,6.43,12.49c1.7,5.11,3.22,10,4.73,15.14a64.81,64.81,0,0,1,2.65,20.62,157.1,157.1,0,0,1-3,28.77A60.5,60.5,0,0,1,181,123.48q-1.14,2.83-2.27,5.67a53.83,53.83,0,0,1-5.68,8.71,60.25,60.25,0,0,1-5.11,7c-3.23,3.52-6.63,6.74-11,8.82Zm77.22,121.62a17,17,0,0,1-1.2,3.61,3.55,3.55,0,0,1-2.86,2c-2.1.15-4.06.15-6.17.15-1.2,0-2.4-.15-3.76-.15-3.31.15-6.76.3-10.07.3-2.41.15-4.67-.15-6.92,0l-16,.45c-3.15,0-6.31-.15-9.47-.3h-.6c-1.21-.91-2.41-1.66-3.46-2.56a2.44,2.44,0,0,1-.6-1,17.6,17.6,0,0,1-1.06-8c.3-4.52.45-8.88.76-13.24.3-5.87.45-11.73.75-17.6.15-2.25,0-4.66.3-6.92.45-4.81,0-9.62-.15-14.29v-1.2c-.3-8-.45-15.79-.6-23.76a57.17,57.17,0,0,1,.6-6.92,11,11,0,0,1,.6-3,34.74,34.74,0,0,1,2.56-6.62,5,5,0,0,1,2.7-2.25,13.89,13.89,0,0,1,5-.61c2.55.15,5.11.15,7.67.3,3.31.16,6.62.31,9.92.61,4.67.15,9.33.3,14,0a73.56,73.56,0,0,1,8.13-.3,15.79,15.79,0,0,1,3.6.75,8.85,8.85,0,0,1,2.11.75,5.12,5.12,0,0,1,2.86,3.91,28.12,28.12,0,0,1,.3,11.73,4.26,4.26,0,0,1-1.35,2.56A13.63,13.63,0,0,1,227,196.6a19.92,19.92,0,0,1-4.36.45h-1.2c-2.86.75-5.87.45-8.88.45a26.19,26.19,0,0,0-5.86.45c-.6.15-1.36.15-2.11.3a34.25,34.25,0,0,0-3.76.75,2.84,2.84,0,0,0-2.56,3c-.15,2-.15,3.91-.15,5.87v1.35a3.42,3.42,0,0,0,2.41,3,4.76,4.76,0,0,0,1.5.15c1.66,0,3.46-.15,5.12-.15H209c3.16.3,6.32,0,9.33.15a5.84,5.84,0,0,1,5.87,4.81c.3,1.06.3,2.11.6,3.16a13.43,13.43,0,0,1,.3,3.46,6.54,6.54,0,0,1-2.71,5.57,7.21,7.21,0,0,1-4.51,1.65c-1.36,0-2.71.3-4.06.3a2,2,0,0,1-.91.15c-2.55.3-5.11.45-7.52.6-1.65.15-3.31.45-4.81.61-1.35.15-1.8.9-2.1,2.1-.61,2.56-.46,5.11-.61,7.67a69,69,0,0,0-.3,11.13,33.84,33.84,0,0,0,.45,3.76c.15,2.11,1.66,3,3.46,3.31,1.51.15,3,.15,4.52.3h5.71v.15c5.11-.3,10.38-.45,15.49-.6a5.46,5.46,0,0,1,5.72,3.46,19.92,19.92,0,0,1,1.21,11.34Zm1.51-118.78c-1.9-.94-3.79-1.7-5.87-2.65a30,30,0,0,1-6.62-4.16c-1.33-1.14-2.65-2.08-3.79-3l-2.27-2.27c-3-3.59-5.87-7.38-7.57-12.11a20.92,20.92,0,0,0-1.32-2.84c-1.14-2.27-1.52-4.54-2.27-6.81A113.46,113.46,0,0,1,202.51,110a88.59,88.59,0,0,1-.76-14.19,60.88,60.88,0,0,1,1.71-11.55c.19-.75.19-1.7.37-2.65.19-1.7.38-3.59.76-5.48a58.93,58.93,0,0,1,1.52-8.33c.94-4,2.27-7.76,3.4-11.54.57-1.9,1.7-3.41,2.46-5.11,2.46-4.17,4.54-8.52,7.76-12.3a51.51,51.51,0,0,1,11.73-10.41c.57-.19,1.33-.57,1.9-.76.94-.38,1.7-.75,2.64-1.13,1.14-.57,2.46-.95,3.79-1.71a38.3,38.3,0,0,1,10.6-2.46,27.69,27.69,0,0,1,9.65.19,1.12,1.12,0,0,0,.75.19,33,33,0,0,1,14,4.54,63.07,63.07,0,0,1,5.86,4,4.55,4.55,0,0,1,1.71,3.21,23,23,0,0,1,.19,5.11,17.52,17.52,0,0,1-4.36,9.47c-3,3.4-6.62,4.73-11,3.59-2.08-.38-4-1-6.06-1.51-.75-.19-1.51-.76-2.46-1.14-.38,0-.56-.38-.94-.38-3.6-.56-7.19-1.51-11,0a21.12,21.12,0,0,0-6,3.41c-2.46,2.65-4.92,5.3-6.44,8.7a53.26,53.26,0,0,0-3.4,9.66A84,84,0,0,0,229,83.57c-.19,3.21,0,6.43,0,9.65,0,3-.19,6,0,9.08a63.21,63.21,0,0,0,3.6,15.52,14.83,14.83,0,0,0,4.16,5.68,2.74,2.74,0,0,1,1.14.94c2.27,2.84,5.48,4.35,8.7,5.49a18.67,18.67,0,0,0,8.71,1.32,28.88,28.88,0,0,0,7.94-2.27,19.58,19.58,0,0,1,4.55-.94,9.13,9.13,0,0,0,2.27-.19c3.21-.38,6,.94,8.89,2.08,2.46,1.14,3.79,3.41,4.73,5.87a15.18,15.18,0,0,1-.38,11.54,11.32,11.32,0,0,1-4,4.54c-1.32.76-2.84,1.51-4.16,2.27-1.52.76-3,1.33-4.36,1.89a33.37,33.37,0,0,1-12.86,2.84,95.69,95.69,0,0,1-14.76,0,26.93,26.93,0,0,1-7.53-2.36Zm66.48,108.25a36.9,36.9,0,0,1-3.16,5.12,26.59,26.59,0,0,1-5.72,6.61,37.68,37.68,0,0,1-8.87,5.42,42.78,42.78,0,0,1-5.87,1.8,18.53,18.53,0,0,1-10.38-.45,41.3,41.3,0,0,1-7.22-2.71c-1.8-.9-3.61-1.35-5.41-2.1a6,6,0,0,1-1.35-.75c-.3-.15-.61-.45-.91-.6a11.43,11.43,0,0,1-4.66-5c0-.15-.15-.3-.15-.45-2.1-2.71-2.56-5.87-2.41-9.17v-.76a6.89,6.89,0,0,1,1.51-5.11,17.84,17.84,0,0,1,4.21-4.06,7.46,7.46,0,0,1,1-.45,28.52,28.52,0,0,1,3.46.15,5.58,5.58,0,0,1,3.31,1.5,56.65,56.65,0,0,0,6.17,4.51,3.22,3.22,0,0,0,.75.46c1.65.45,3.31.75,5,1.2.76.15,1.66.15,2.41.3a8,8,0,0,0,6-1.35c.3-.15.45-.46.75-.91a12.33,12.33,0,0,0,2.55-8.27,6.7,6.7,0,0,0-1.8-4.36,10.8,10.8,0,0,0-3.61-2.71,69.79,69.79,0,0,1-9.93-5.26c-3.16-1.81-6.16-3.76-9.32-5.72a40.26,40.26,0,0,1-5.27-3.61,25,25,0,0,1-5.26-6.46,26.31,26.31,0,0,1-3-10.68c-.15-2.56-.15-5.12-.15-7.67v-.46a40.29,40.29,0,0,1,2.71-8.57c.9-1.8,2.1-3.31,3-5.11,1.2-2,3.16-3.46,4.81-5.27a27.31,27.31,0,0,1,6.92-5.56,9.89,9.89,0,0,1,2.86-1.21c1.65-.45,3.31-.9,5-1.2a38.3,38.3,0,0,1,13.08,0,25.73,25.73,0,0,1,6.47,2.41,48.58,48.58,0,0,1,6.77,4.51,18.25,18.25,0,0,1,2.71,2.41c.15.15.3.45.45.6.15.45.3.75.45,1.2,1,2.71,1,2.71.6,5.57a2.43,2.43,0,0,1-.45,1.35,18.67,18.67,0,0,1-1.5,3,10.57,10.57,0,0,1-4.21,3.91c-.15,0-.31.15-.46.15-2.25,1.5-4.66,1-7.06.3a33.34,33.34,0,0,1-3.61-1.35,12.61,12.61,0,0,0-4.67-1.21,42.26,42.26,0,0,0-6.16.15,5.7,5.7,0,0,0-3.91,2.56,9,9,0,0,0-1.66,5.87,2,2,0,0,0,.15.9c1,2.1,1.81,4.21,4.06,5.41,1.36.61,2.71,1.36,4.21,2,3.31,1.35,6.77,3,10.08,4.66a64.25,64.25,0,0,1,9.78,6.92,16.62,16.62,0,0,1,2.55,2.11,19.33,19.33,0,0,1,6.62,12.48c.3,3.16.6,6.47.75,9.78a28.88,28.88,0,0,1-3,13.19Zm84.37,15.64a1.87,1.87,0,0,1-2,1.21c-4.36.6-8.73,0-13.09-.3a3.87,3.87,0,0,1-3.31-3,16.11,16.11,0,0,1-.9-4.66c-.45-8.13-.6-16.4-.75-24.52-.15-3-.15-6.17-.15-9.18a8.72,8.72,0,0,0-1-4.81,3.57,3.57,0,0,0-3.46-2.25c-3.76.15-7.37.15-11.13.3a34.47,34.47,0,0,0-5.42,1c-.45,0-.9.45-1.2.75a6.2,6.2,0,0,0-1.66,4.21c0,2.86.16,5.87.16,8.73,0,6.16-.16,12.33-.16,18.5,0,3-.15,6-.3,8.87a16.28,16.28,0,0,1-1.5,5.42,2.65,2.65,0,0,1-2.11,1.65c-2.85.15-5.71.6-8.57.6a8.23,8.23,0,0,1-5.56-1.8,5.35,5.35,0,0,1-2.11-4.37c.15-6.31.45-12.63.45-19.1s0-13.08-.15-19.7c-.15-4.66-.3-9.48-.3-14.14,0-8.12,0-16.39.15-24.67,0-4.81.15-9.62.3-14.43a19.11,19.11,0,0,1,1.51-7.07,4.88,4.88,0,0,1,3.61-3,26.2,26.2,0,0,1,5.86-.6h.6a10.56,10.56,0,0,0,4.36.45,8,8,0,0,1,3.31,1.2,2.64,2.64,0,0,1,1.21,2.26c0,6.16.15,12.33,0,18.5-.15,4.21-.45,8.42-.45,12.48a3.66,3.66,0,0,0,3.45,3.76,78.65,78.65,0,0,0,11.89.15,28.1,28.1,0,0,0,5-.6,3.14,3.14,0,0,0,3-3.16V183.26l.45-5.41a4.51,4.51,0,0,1,3.31-3.76,31.92,31.92,0,0,1,8.42-1.06c2.86.3,5.27,1.21,6.62,4.06a7.69,7.69,0,0,1,.9,3.61c0,4.82.15,9.48.3,14.14.15,8.43.45,16.85.6,25.42.15,2.56.15,5.27.31,8h-.16q.24,10.83.46,21.66c.15,8.88.3,17.6.45,26.32a8.45,8.45,0,0,1-1.24,4.17ZM387,150.88c-1.14,3-3.79,4.17-6.44,4.93a29,29,0,0,1-16.08.18,1,1,0,0,0-.57-.18,30.62,30.62,0,0,1-4.35-4.17,10.47,10.47,0,0,1-2.65-5.68,5.46,5.46,0,0,0-3.41-4.35c-.57,0-1.13-.19-1.7-.19-5.3-.19-10.6-.19-15.9-.37-.94,0-2.08-.19-3.21-.19a4,4,0,0,0-4,1.7,21.56,21.56,0,0,0-2.08,4.16,11.79,11.79,0,0,1-5.11,6.81,15.77,15.77,0,0,1-2.27,1.52,10.72,10.72,0,0,1-5.49,1.32,46.72,46.72,0,0,1-11.54-1.32,23.15,23.15,0,0,1-4.54-1.89,3.36,3.36,0,0,1-1.71-3.22,16.5,16.5,0,0,1,.76-7.38c1-3,2.08-6.25,2.84-9.46,1-3.22,1.51-6.44,2.27-9.65,1.14-4.74,2.08-9.47,3.22-14.2,1.51-5.86,3.21-11.54,4.73-17.22.76-3.59,1.7-7,2.46-10.41.94-3.59,1.89-7,2.84-10.4.75-2.46,1.32-4.73,2.08-7.19,1.51-5.11,3.22-10,4.54-15.14.76-2.84,1.14-5.87,1.89-8.9,1.14-3.59,2.08-7.38,3.6-11a11,11,0,0,1,8-6.06H336c2.46-1.13,4.92-.76,7.57-.76h3.6A6.9,6.9,0,0,1,352,23.69a24.12,24.12,0,0,1,4.73,4,6.43,6.43,0,0,1,.94,1.52,36.14,36.14,0,0,1,2.47,8.89c.18,2.27,1.13,4.54,1.7,7,.76,3,1.51,6.06,2.08,9.08a1.43,1.43,0,0,1,.19.76c-.19,2.65.76,5.11,1.51,7.38,1.14,3.79,2.08,7.57,3.22,11.36a19.9,19.9,0,0,0,1,3.21Q371,81.44,372.15,86c1.51,5.48,3.21,11,4.73,16.46,1.89,7.38,3.59,15,5.49,22.33,1.13,4.35,2.46,8.52,3.59,12.68.76,2.65,1.52,5.11,2.08,7.76a15,15,0,0,1-1,5.63Z"/></svg>